<svg version="1.1" xmlns="http://www.w3.org/2000/svg" xmlns:xlink="http://www.w3.org/1999/xlink" viewBox="0 0 172 172"><defs><linearGradient x1="86" y1="26.37513" x2="86" y2="144.88312" gradientUnits="userSpaceOnUse" id="color-1"><stop offset="0" stop-color="#1a6dff"></stop><stop offset="1" stop-color="#c822ff"></stop></linearGradient><linearGradient x1="21.5" y1="32.25" x2="21.5" y2="43.05375" gradientUnits="userSpaceOnUse" id="color-2"><stop offset="0" stop-color="#8ab4ff"></stop><stop offset="1" stop-color="#e492ff"></stop></linearGradient><linearGradient x1="150.5" y1="32.25" x2="150.5" y2="43.05375" gradientUnits="userSpaceOnUse" id="color-3"><stop offset="0" stop-color="#8ab4ff"></stop><stop offset="1" stop-color="#e492ff"></stop></linearGradient><linearGradient x1="21.5" y1="129" x2="21.5" y2="139.80375" gradientUnits="userSpaceOnUse" id="color-4"><stop offset="0" stop-color="#8ab4ff"></stop><stop offset="1" stop-color="#e492ff"></stop></linearGradient><linearGradient x1="150.5" y1="129" x2="150.5" y2="139.80375" gradientUnits="userSpaceOnUse" id="color-5"><stop offset="0" stop-color="#8ab4ff"></stop><stop offset="1" stop-color="#e492ff"></stop></linearGradient><linearGradient x1="86" y1="51.58388" x2="86" y2="120.529" gradientUnits="userSpaceOnUse" id="color-6"><stop offset="0" stop-color="#8ab4ff"></stop><stop offset="1" stop-color="#e492ff"></stop></linearGradient><linearGradient x1="86" y1="26.37513" x2="86" y2="144.88312" gradientUnits="userSpaceOnUse" id="color-7"><stop offset="0" stop-color="#1a6dff"></stop><stop offset="1" stop-color="#c822ff"></stop></linearGradient><linearGradient x1="21.5" y1="32.25" x2="21.5" y2="43.05375" gradientUnits="userSpaceOnUse" id="color-8"><stop offset="0" stop-color="#8ab4ff"></stop><stop offset="1" stop-color="#e492ff"></stop></linearGradient><linearGradient x1="150.5" y1="32.25" x2="150.5" y2="43.05375" gradientUnits="userSpaceOnUse" id="color-9"><stop offset="0" stop-color="#8ab4ff"></stop><stop offset="1" stop-color="#e492ff"></stop></linearGradient><linearGradient x1="21.5" y1="129" x2="21.5" y2="139.80375" gradientUnits="userSpaceOnUse" id="color-10"><stop offset="0" stop-color="#8ab4ff"></stop><stop offset="1" stop-color="#e492ff"></stop></linearGradient><linearGradient x1="150.5" y1="129" x2="150.5" y2="139.80375" gradientUnits="userSpaceOnUse" id="color-11"><stop offset="0" stop-color="#8ab4ff"></stop><stop offset="1" stop-color="#e492ff"></stop></linearGradient><linearGradient x1="86" y1="51.58388" x2="86" y2="120.529" gradientUnits="userSpaceOnUse" id="color-12"><stop offset="0" stop-color="#8ab4ff"></stop><stop offset="1" stop-color="#e492ff"></stop></linearGradient><linearGradient x1="137.0625" y1="102.57301" x2="137.0625" y2="171.44019" gradientUnits="userSpaceOnUse" id="color-13"><stop offset="0" stop-color="#1a6dff"></stop><stop offset="1" stop-color="#c822ff"></stop></linearGradient><linearGradient x1="137.0625" y1="102.125" x2="137.0625" y2="172" gradientUnits="userSpaceOnUse" id="color-14"><stop offset="0" stop-color="#1a6dff"></stop><stop offset="1" stop-color="#c822ff"></stop></linearGradient></defs><g fill="none" fill-rule="nonzero" stroke="none" stroke-width="1" stroke-linecap="butt" stroke-linejoin="miter" stroke-miterlimit="10" stroke-dasharray="" stroke-dashoffset="0" font-family="none" font-weight="none" font-size="none" text-anchor="none" style="mix-blend-mode: normal"><path d="M0,172v-172h172v172z" fill="none" stroke="none"></path><g id="original-icon" stroke="none" opacity="0" visibility="hidden"><path d="M153.1875,124.00663v-76.01325c4.62519,-1.20131 8.0625,-5.375 8.0625,-10.36837c0,-5.92862 -4.82137,-10.75 -10.75,-10.75c-4.99606,0 -9.16706,3.44 -10.36837,8.0625h-108.26325c-1.20131,-4.6225 -5.37231,-8.0625 -10.36837,-8.0625c-5.92862,0 -10.75,4.82138 -10.75,10.75c0,4.99338 3.43731,9.16706 8.0625,10.36838v76.01325c-4.62519,1.20131 -8.0625,5.375 -8.0625,10.36837c0,5.92863 4.82138,10.75 10.75,10.75c4.99606,0 9.16706,-3.44 10.36838,-8.0625h108.26325c1.20131,4.6225 5.37231,8.0625 10.36837,8.0625c5.92863,0 10.75,-4.82137 10.75,-10.75c0,-4.99337 -3.43731,-9.16706 -8.0625,-10.36837zM24.1875,124.00663v-76.01325c3.75981,-0.97825 6.70262,-3.92106 7.68088,-7.68087h108.26325c0.97825,3.75981 3.92106,6.70262 7.68087,7.68088v76.01325c-3.75981,0.97825 -6.70262,3.92106 -7.68087,7.68087h-108.26325c-0.97825,-3.75981 -3.92106,-6.70262 -7.68087,-7.68087z" fill="url(#color-1)"></path><path d="M21.5,32.25c-2.96853,0 -5.375,2.40647 -5.375,5.375c0,2.96853 2.40647,5.375 5.375,5.375c2.96853,0 5.375,-2.40647 5.375,-5.375c0,-2.96853 -2.40647,-5.375 -5.375,-5.375z" fill="url(#color-2)"></path><path d="M150.5,32.25c-2.96853,0 -5.375,2.40647 -5.375,5.375c0,2.96853 2.40647,5.375 5.375,5.375c2.96853,0 5.375,-2.40647 5.375,-5.375c0,-2.96853 -2.40647,-5.375 -5.375,-5.375z" fill="url(#color-3)"></path><path d="M21.5,129c-2.96853,0 -5.375,2.40647 -5.375,5.375c0,2.96853 2.40647,5.375 5.375,5.375c2.96853,0 5.375,-2.40647 5.375,-5.375c0,-2.96853 -2.40647,-5.375 -5.375,-5.375z" fill="url(#color-4)"></path><path d="M150.5,129c-2.96853,0 -5.375,2.40647 -5.375,5.375c0,2.96853 2.40647,5.375 5.375,5.375c2.96853,0 5.375,-2.40647 5.375,-5.375c0,-2.96853 -2.40647,-5.375 -5.375,-5.375z" fill="url(#color-5)"></path><path d="M34.9375,51.0625h102.125v69.875h-102.125z" fill="url(#color-6)"></path></g><g id="subtracted-icon" stroke="none"><path d="M31.86838,137.0625c-1.20131,4.6225 -5.37231,8.0625 -10.36837,8.0625c-5.92862,0 -10.75,-4.82137 -10.75,-10.75c0,-4.99337 3.43731,-9.16706 8.0625,-10.36837v-76.01325c-4.62519,-1.20131 -8.0625,-5.375 -8.0625,-10.36837c0,-5.92862 4.82138,-10.75 10.75,-10.75c4.99606,0 9.16706,3.44 10.36838,8.0625h108.26325c1.20131,-4.6225 5.37231,-8.0625 10.36837,-8.0625c5.92863,0 10.75,4.82138 10.75,10.75c0,4.99338 -3.43731,9.16706 -8.0625,10.36838l0,52.1229c-1.73191,-0.75881 -3.52701,-1.3993 -5.375,-1.91116l0,-50.21174c-3.75981,-0.97825 -6.70262,-3.92106 -7.68087,-7.68087h-108.26325c-0.97825,3.75981 -3.92106,6.70262 -7.68087,7.68088v76.01325c3.75981,0.97825 6.70262,3.92106 7.68088,7.68087l65.23848,0c-0.23534,1.7587 -0.35686,3.55293 -0.35686,5.375z" fill="url(#color-7)"></path><path d="M21.5,32.25c-2.96853,0 -5.375,2.40647 -5.375,5.375c0,2.96853 2.40647,5.375 5.375,5.375c2.96853,0 5.375,-2.40647 5.375,-5.375c0,-2.96853 -2.40647,-5.375 -5.375,-5.375z" fill="url(#color-8)"></path><path d="M150.5,32.25c-2.96853,0 -5.375,2.40647 -5.375,5.375c0,2.96853 2.40647,5.375 5.375,5.375c2.96853,0 5.375,-2.40647 5.375,-5.375c0,-2.96853 -2.40647,-5.375 -5.375,-5.375z" fill="url(#color-9)"></path><path d="M21.5,129c-2.96853,0 -5.375,2.40647 -5.375,5.375c0,2.96853 2.40647,5.375 5.375,5.375c2.96853,0 5.375,-2.40647 5.375,-5.375c0,-2.96853 -2.40647,-5.375 -5.375,-5.375z" fill="url(#color-10)"></path><path d="" fill="url(#color-11)"></path><path d="M34.9375,51.0625h102.125v45.6875c-16.49834,0 -30.71372,9.96246 -36.94623,24.1875h-65.17877z" fill="url(#color-12)"></path></g><g stroke="none"><g id="Layer_1"><path d="M150.5,134.375h-10.75v-10.75c0,-1.4835 -1.204,-2.6875 -2.6875,-2.6875c-1.4835,0 -2.6875,1.204 -2.6875,2.6875v10.75h-10.75c-1.4835,0 -2.6875,1.204 -2.6875,2.6875c0,1.4835 1.204,2.6875 2.6875,2.6875h10.75v10.75c0,1.4835 1.204,2.6875 2.6875,2.6875c1.4835,0 2.6875,-1.204 2.6875,-2.6875v-10.75h10.75c1.4835,0 2.6875,-1.204 2.6875,-2.6875c0,-1.4835 -1.204,-2.6875 -2.6875,-2.6875z" fill="url(#color-13)"></path><path d="M137.0625,172c-19.264,0 -34.9375,-15.6735 -34.9375,-34.9375c0,-19.264 15.6735,-34.9375 34.9375,-34.9375c19.264,0 34.9375,15.6735 34.9375,34.9375c0,19.264 -15.6735,34.9375 -34.9375,34.9375zM137.0625,107.5c-16.29969,0 -29.5625,13.26281 -29.5625,29.5625c0,16.29969 13.26281,29.5625 29.5625,29.5625c16.29969,0 29.5625,-13.26281 29.5625,-29.5625c0,-16.29969 -13.26281,-29.5625 -29.5625,-29.5625z" fill="url(#color-14)"></path></g><g id="Layer_1" fill="#000000" opacity="0"><path d="M137.0625,96.75c-22.22831,0 -40.3125,18.08419 -40.3125,40.3125c0,22.22831 18.08419,40.3125 40.3125,40.3125c22.22831,0 40.3125,-18.08419 40.3125,-40.3125c0,-22.22831 -18.08419,-40.3125 -40.3125,-40.3125z"></path></g></g><path d="M102.125,172v-69.875h69.875v69.875z" id="overlay-drag" fill="#ff0000" stroke="none" opacity="0"></path></g></svg>