<?xml version="1.0" standalone="no"?>
<!DOCTYPE svg PUBLIC "-//W3C//DTD SVG 20010904//EN"
 "http://www.w3.org/TR/2001/REC-SVG-20010904/DTD/svg10.dtd">
<svg version="1.0" xmlns="http://www.w3.org/2000/svg"
 width="344.000000pt" height="344.000000pt" viewBox="0 0 344.000000 344.000000"
 preserveAspectRatio="xMidYMid meet">

<g transform="translate(0.000000,344.000000) scale(0.100000,-0.100000)"
fill="#000000" stroke="none">
<path d="M1092 3424 c-40 -28 -30 -68 53 -191 41 -62 75 -116 75 -120 0 -5
-28 -24 -62 -43 -119 -68 -256 -216 -323 -350 -23 -45 -65 -153 -65 -167 0 -1
428 -3 950 -3 523 0 950 2 950 3 0 2 -8 28 -19 58 -62 182 -192 345 -359 453
-40 26 -72 49 -72 52 0 2 34 55 76 118 62 94 75 119 72 147 -2 23 -11 38 -29
48 -49 27 -70 11 -165 -129 -63 -93 -93 -129 -103 -125 -8 3 -51 16 -95 28
-69 19 -107 22 -256 22 -149 0 -187 -3 -256 -22 -44 -12 -87 -25 -95 -28 -11
-4 -38 28 -94 112 -44 65 -88 126 -97 135 -22 22 -56 23 -86 2z m298 -549 c37
-19 50 -43 50 -92 0 -94 -114 -134 -175 -61 -40 48 -30 118 23 151 34 21 65
21 102 2z m776 -19 c43 -43 46 -90 9 -134 -61 -73 -175 -33 -175 61 0 48 13
72 48 91 45 25 80 20 118 -18z"/>
<path d="M488 2396 c-59 -21 -85 -42 -115 -93 l-28 -48 0 -535 0 -535 28 -48
c44 -74 128 -115 208 -102 l39 7 0 678 0 678 -31 6 c-43 8 -58 7 -101 -8z"/>
<path d="M760 1627 l0 -784 23 -44 c13 -24 43 -57 66 -74 l43 -30 828 0 828 0
43 30 c23 17 53 50 66 74 l23 44 0 784 0 783 -960 0 -960 0 0 -783z"/>
<path d="M2843 2403 l-23 -4 0 -679 0 -678 39 -7 c80 -13 164 28 208 102 l28
48 0 536 0 536 -30 49 c-46 74 -140 115 -222 97z"/>
<path d="M1032 378 c4 -200 16 -238 96 -308 138 -122 349 -75 428 95 22 46 24
63 24 218 l0 167 -276 0 -276 0 4 -172z"/>
<path d="M1860 383 c0 -155 2 -172 24 -218 98 -212 385 -219 494 -11 25 48 27
60 30 224 l4 172 -276 0 -276 0 0 -167z"/>
</g>
</svg>
