<svg version="1.1" xmlns="http://www.w3.org/2000/svg" xmlns:xlink="http://www.w3.org/1999/xlink" viewBox="0 0 172 172"><defs><linearGradient x1="86" y1="61.877" x2="86" y2="109.74138" gradientUnits="userSpaceOnUse" id="color-1"><stop offset="0" stop-color="#eaee83"></stop><stop offset="1" stop-color="#fdc599"></stop></linearGradient><linearGradient x1="86" y1="16.125" x2="86" y2="159.51387" gradientUnits="userSpaceOnUse" id="color-2"><stop offset="0" stop-color="#d9e021"></stop><stop offset="1" stop-color="#fb872b"></stop></linearGradient></defs><g fill="none" fill-rule="nonzero" stroke="none" stroke-width="1" stroke-linecap="butt" stroke-linejoin="miter" stroke-miterlimit="10" stroke-dasharray="" stroke-dashoffset="0" font-family="none" font-weight="none" font-size="none" text-anchor="none" style="mix-blend-mode: normal"><path d="M0,172v-172h172v172z" fill="none"></path><g><path d="M125.87981,61.8125h-54.36813c-1.11263,0 -2.13925,0.57244 -2.69825,1.505l-25.38881,42.32813c-0.56169,0.93256 -0.56437,2.08819 -0.00537,3.02612c0.55094,0.93794 1.58563,1.51575 2.70094,1.51575h54.19344c0.05912,0 0.11556,0 0.17469,0c1.075,0 2.12313,-0.54019 2.70094,-1.505l25.38881,-42.32812c0.56169,-0.93256 0.56437,-2.08819 0.00537,-3.02613c-0.55362,-0.93794 -1.58831,-1.51575 -2.70363,-1.51575z" fill="url(#color-1)"></path><path d="M86,155.875c-38.528,0 -69.875,-31.347 -69.875,-69.875c0,-38.528 31.347,-69.875 69.875,-69.875c38.528,0 69.875,31.347 69.875,69.875c0,38.528 -31.347,69.875 -69.875,69.875zM86,21.5c-35.56638,0 -64.5,28.93362 -64.5,64.5c0,35.56638 28.93362,64.5 64.5,64.5c35.56638,0 64.5,-28.93362 64.5,-64.5c0,-35.56638 -28.93362,-64.5 -64.5,-64.5z" fill="url(#color-2)"></path></g></g></svg>