<svg version="1.1" xmlns="http://www.w3.org/2000/svg" xmlns:xlink="http://www.w3.org/1999/xlink" viewBox="0 0 172 172"><defs><linearGradient x1="99.4375" y1="60.46875" x2="99.4375" y2="79.9585" gradientUnits="userSpaceOnUse" id="color-1"><stop offset="0" stop-color="#eaee83"></stop><stop offset="1" stop-color="#fdc599"></stop></linearGradient><linearGradient x1="72.5625" y1="60.46875" x2="72.5625" y2="79.9585" gradientUnits="userSpaceOnUse" id="color-2"><stop offset="0" stop-color="#eaee83"></stop><stop offset="1" stop-color="#fdc599"></stop></linearGradient><linearGradient x1="86" y1="16.125" x2="86" y2="157.44988" gradientUnits="userSpaceOnUse" id="color-3"><stop offset="0" stop-color="#d9e021"></stop><stop offset="1" stop-color="#fb872b"></stop></linearGradient><linearGradient x1="72.69688" y1="16.125" x2="72.69688" y2="157.44988" gradientUnits="userSpaceOnUse" id="color-4"><stop offset="0" stop-color="#d9e021"></stop><stop offset="1" stop-color="#fb872b"></stop></linearGradient></defs><g fill="none" fill-rule="nonzero" stroke="none" stroke-width="1" stroke-linecap="butt" stroke-linejoin="miter" stroke-miterlimit="10" stroke-dasharray="" stroke-dashoffset="0" font-family="none" font-weight="none" font-size="none" text-anchor="none" style="mix-blend-mode: normal"><path d="M0,172v-172h172v172z" fill="none"></path><g><path d="M99.4375,61.8125c-4.4528,0 -8.0625,3.6097 -8.0625,8.0625c0,4.4528 3.6097,8.0625 8.0625,8.0625c4.4528,0 8.0625,-3.6097 8.0625,-8.0625c0,-4.4528 -3.6097,-8.0625 -8.0625,-8.0625z" fill="url(#color-1)"></path><path d="M72.5625,61.8125c-4.4528,0 -8.0625,3.6097 -8.0625,8.0625c0,4.4528 3.6097,8.0625 8.0625,8.0625c4.4528,0 8.0625,-3.6097 8.0625,-8.0625c0,-4.4528 -3.6097,-8.0625 -8.0625,-8.0625z" fill="url(#color-2)"></path><path d="M121.14981,92.23769c3.27606,-5.8265 5.16269,-12.52912 5.16269,-19.67519v-16.125c0,-22.22831 -18.08419,-40.3125 -40.3125,-40.3125c-22.22831,0 -40.3125,18.08419 -40.3125,40.3125v16.125c0,7.14606 1.88931,13.84869 5.16269,19.67519c-15.03387,11.13969 -23.97519,28.76163 -23.97519,47.51231v16.125h118.25v-16.125c0,-18.75069 -8.944,-36.37262 -23.97519,-47.51231zM51.0625,56.4375c0,-19.264 15.6735,-34.9375 34.9375,-34.9375c19.264,0 34.9375,15.6735 34.9375,34.9375v16.125c0,19.264 -15.6735,34.9375 -34.9375,34.9375c-19.264,0 -34.9375,-15.6735 -34.9375,-34.9375zM86,112.875c13.158,0 24.82444,-6.364 32.18819,-16.14381c1.45931,1.09381 2.8595,2.24944 4.18712,3.47225c-8.729,11.46756 -21.96763,18.04656 -36.37531,18.04656c-14.35125,0 -27.74844,-6.69725 -36.378,-18.04387c1.33031,-1.2255 2.7305,-2.38112 4.18981,-3.47494c7.36375,9.77981 19.03288,16.14381 32.18819,16.14381zM139.75,150.5h-13.4375v-5.375h-5.375v5.375h-69.875v-5.375h-5.375v5.375h-13.4375v-10.75c0,-13.28431 4.93425,-25.94781 13.57725,-35.69c9.6535,12.31144 24.39444,19.565 40.17275,19.565c15.8455,0 30.41713,-7.12725 40.17006,-19.56769c8.64569,9.7395 13.57994,22.40569 13.57994,35.69269z" fill="url(#color-3)"></path><path d="M86,32.25v-5.375c-11.24719,0 -21.69081,6.54138 -26.60625,16.65981l4.83481,2.34887c4.085,-8.40919 12.427,-13.63369 21.77144,-13.63369z" fill="url(#color-4)"></path></g></g></svg>