<svg version="1.1" xmlns="http://www.w3.org/2000/svg" xmlns:xlink="http://www.w3.org/1999/xlink" viewBox="0 0 172 172"><defs><linearGradient x1="86" y1="16.12231" x2="86" y2="154.96663" gradientUnits="userSpaceOnUse" id="color-1"><stop offset="0" stop-color="#d9e021"></stop><stop offset="1" stop-color="#fb872b"></stop></linearGradient><linearGradient x1="88.6875" y1="16.06856" x2="88.6875" y2="154.91288" gradientUnits="userSpaceOnUse" id="color-2"><stop offset="0" stop-color="#d9e021"></stop><stop offset="1" stop-color="#fb872b"></stop></linearGradient><linearGradient x1="86" y1="16.06856" x2="86" y2="154.91288" gradientUnits="userSpaceOnUse" id="color-3"><stop offset="0" stop-color="#d9e021"></stop><stop offset="1" stop-color="#fb872b"></stop></linearGradient><linearGradient x1="86" y1="144.00431" x2="86" y2="152.31944" gradientUnits="userSpaceOnUse" id="color-4"><stop offset="0" stop-color="#eaee83"></stop><stop offset="1" stop-color="#fdc599"></stop></linearGradient></defs><g fill="none" fill-rule="nonzero" stroke="none" stroke-width="1" stroke-linecap="butt" stroke-linejoin="miter" stroke-miterlimit="10" stroke-dasharray="" stroke-dashoffset="0" font-family="none" font-weight="none" font-size="none" text-anchor="none" style="mix-blend-mode: normal"><path d="M0,172v-172h172v172z" fill="none"></path><g><path d="M147.72919,74.37925c1.67969,1.01856 3.69531,1.05081 5.40725,0.08331c1.69044,-0.95406 2.74125,-2.76006 2.74125,-4.70312v-8.30437c0,-2.81381 -1.50231,-5.46906 -3.90494,-6.91762l-61.8125,-37.25681c-2.56119,-1.54263 -5.75394,-1.54263 -8.31513,0l-61.8125,37.25681c-2.40531,1.44856 -3.90763,4.10381 -3.90763,6.91763v8.30438c0,1.94306 1.05081,3.74906 2.74125,4.70313c0.83044,0.46225 1.73344,0.70413 2.6445,0.70413c0.946,0 1.90006,-0.26337 2.76006,-0.78744l2.60419,-1.56412v66.93487c-2.96163,0 -5.375,2.41338 -5.375,5.375v5.375h-5.375v5.375h139.75v-5.375h-5.375v-5.375c0,-2.96162 -2.41338,-5.375 -5.375,-5.375v-66.93487zM145.125,150.5h-118.25v-5.375h43h32.25h43zM32.25,129v-5.375h10.75v-5.375h-10.75v-48.66794l52.374,-31.56737c0.84925,-0.51331 1.90006,-0.51331 2.74931,0l52.37669,31.56738v48.66794h-10.75v5.375h10.75v5.375h-16.125v5.375h16.125v5.375h-37.625v-34.89987c0,-4.46663 -3.63619,-8.10013 -8.10281,-8.10013h-16.04706c-4.46394,0 -8.10012,3.6335 -8.10012,8.10013v34.89987h-37.625v-5.375h16.125v-5.375zM96.75,104.85013v34.89987h-21.5v-34.89987c0,-1.50231 1.22281,-2.72513 2.72781,-2.72513h16.04706c1.50231,0 2.72512,1.22281 2.72512,2.72513zM90.15756,33.40563c-1.28194,-0.76594 -2.71975,-1.15563 -4.15756,-1.15563c-1.43781,0 -2.87562,0.38969 -4.15756,1.15563l-60.34244,36.35381v-8.30437c0,-0.946 0.50256,-1.8275 1.30075,-2.30856l61.82325,-37.25681c0.84925,-0.51331 1.90006,-0.51331 2.74931,0l61.82325,37.25681c0.79819,0.48375 1.30344,1.36525 1.30344,2.30856v8.32587z" fill="url(#color-1)"></path><path d="M86,115.5625h5.375v10.75h-5.375z" fill="url(#color-2)"></path><path d="M69.875,86h32.25v5.375h-32.25z" fill="url(#color-3)"></path><path d="M26.875,145.125h118.25v5.375h-118.25z" fill="url(#color-4)"></path></g></g></svg>