<?xml version="1.0" standalone="no"?>
<!DOCTYPE svg PUBLIC "-//W3C//DTD SVG 20010904//EN"
 "http://www.w3.org/TR/2001/REC-SVG-20010904/DTD/svg10.dtd">
<svg version="1.0" xmlns="http://www.w3.org/2000/svg"
 width="344.000000pt" height="344.000000pt" viewBox="0 0 344.000000 344.000000"
 preserveAspectRatio="xMidYMid meet">

<g transform="translate(0.000000,344.000000) scale(0.100000,-0.100000)"
fill="#000000" stroke="none">
<path d="M2200 3354 c-200 -54 -381 -200 -474 -386 -60 -121 -93 -281 -70
-342 14 -35 157 -6 278 57 143 74 272 225 331 390 29 79 49 206 40 258 -8 45
-16 47 -105 23z"/>
<path d="M1015 2613 c-251 -53 -506 -278 -600 -528 -155 -412 -46 -995 276
-1475 109 -164 254 -311 354 -360 66 -33 75 -35 175 -35 103 0 108 1 220 48
260 107 409 103 690 -19 57 -25 77 -29 165 -29 94 0 104 2 170 35 155 76 390
368 535 664 33 68 60 126 60 129 0 4 -30 21 -66 39 -173 86 -307 253 -360 448
-24 87 -24 262 -1 350 40 153 152 308 284 396 l56 37 -85 82 c-146 142 -312
221 -488 232 -116 8 -210 -9 -379 -67 -79 -28 -170 -54 -202 -59 -82 -14 -175
2 -331 55 -219 75 -329 88 -473 57z"/>
</g>
</svg>
