<svg version="1.1" xmlns="http://www.w3.org/2000/svg" xmlns:xlink="http://www.w3.org/1999/xlink" viewBox="0 0 172 172"><defs><linearGradient x1="86" y1="16.125" x2="86" y2="155.875" gradientUnits="userSpaceOnUse" id="color-1"><stop offset="0" stop-color="#d9e021"></stop><stop offset="1" stop-color="#fb872b"></stop></linearGradient><linearGradient x1="92.56556" y1="129" x2="92.56556" y2="150.5" gradientUnits="userSpaceOnUse" id="color-2"><stop offset="0" stop-color="#eaee83"></stop><stop offset="1" stop-color="#fdc599"></stop></linearGradient><linearGradient x1="93.90125" y1="26.87769" x2="93.90125" y2="96.37375" gradientUnits="userSpaceOnUse" id="color-3"><stop offset="0" stop-color="#eaee83"></stop><stop offset="1" stop-color="#fdc599"></stop></linearGradient><linearGradient x1="83.67531" y1="59.125" x2="83.67531" y2="126.3125" gradientUnits="userSpaceOnUse" id="color-4"><stop offset="0" stop-color="#eaee83"></stop><stop offset="1" stop-color="#fdc599"></stop></linearGradient></defs><g fill="none" fill-rule="nonzero" stroke="none" stroke-width="none" stroke-linecap="butt" stroke-linejoin="miter" stroke-miterlimit="10" stroke-dasharray="" stroke-dashoffset="0" font-family="none" font-weight="none" font-size="none" text-anchor="none" style="mix-blend-mode: normal"><path d="M0,172v-172h172v172z" fill="none" stroke="none" stroke-width="1"></path><g><path d="M86,18.8125c-37.10663,0 -67.1875,30.08087 -67.1875,67.1875c0,37.10663 30.08087,67.1875 67.1875,67.1875c37.10663,0 67.1875,-30.08087 67.1875,-67.1875c0,-37.10663 -30.08087,-67.1875 -67.1875,-67.1875z" fill="none" stroke="url(#color-1)" stroke-width="5.375"></path><path d="M131.365,131.82188c-2.09625,2.09625 -4.32688,4.00437 -6.665,5.77812l-0.16125,0.13437c-2.06938,1.55875 -4.16562,2.95625 -6.39625,4.21938c0,0.02687 -0.02687,0.02687 -0.02687,0.02687h-0.02687c-9.72875,5.59 -20.66688,8.51938 -32.08875,8.51938c-7.79375,0 -15.34562,-1.37062 -22.54812,-4.05812c-0.43,-0.16125 -0.83313,-0.3225 -1.26313,-0.48375c-1.58563,-0.61812 -3.14438,-1.34375 -4.70312,-2.12312c-0.91375,-0.43 -1.80063,-0.91375 -2.6875,-1.3975c-1.075,-3.27875 -1.63937,-7.06813 -0.02688,-9.86312c0.91375,-1.63938 2.92938,-3.57438 7.22938,-3.57438c4.3,0 8.68063,1.66625 13.70625,3.60125c7.01437,2.6875 14.9425,5.72437 25.74625,5.72437c17.68375,0 29.10563,-6.07375 29.91188,-6.50375z" fill="url(#color-2)" stroke="none" stroke-width="1"></path><path d="M150.5,86c0,1.66625 -0.08062,3.35938 -0.24188,5.07937v0.13437c-0.08062,1.6125 -0.29562,3.30562 -0.59125,5.07937c0,0.02688 0,0.05375 -0.02688,0.08063c-10.02437,-1.72 -24.32188,-10.535 -42.54312,-26.31062c-3.06375,-2.58 -6.26187,-5.59 -9.62125,-8.78813c-11.66375,-11.09937 -24.85937,-23.65 -39.50625,-23.65c-13.2225,0 -19.29625,4.81062 -20.66688,6.10063c2.15,-2.49938 4.54187,-4.86438 7.14875,-7.06813c0.645,-0.5375 1.29,-1.075 2.0425,-1.6125c0.94063,-0.7525 1.90812,-1.45125 2.9025,-2.12313c1.96187,-1.37063 4.00437,-2.63375 6.10062,-3.7625c10.66938,-2.82188 23.94563,-2.23063 24.24125,-2.23063c24.69812,0 37.57125,16.74313 47.89125,30.2075c6.63813,8.62688 11.87875,15.42625 18.75875,15.42625c0.99437,0 1.85437,-0.13438 2.60688,-0.37625c0.99437,4.48812 1.505,9.1375 1.505,13.81375z" fill="url(#color-3)" stroke="none" stroke-width="1"></path><path d="M145.85063,110.02625c-1.1825,3.06375 -2.71437,6.1275 -4.515,9.1375c-0.26875,0.45687 -0.56438,0.91375 -0.86,1.37062c-1.88125,0.94063 -12.04,5.77813 -23.94563,5.77813c-30.55687,0 -47.32687,-8.51938 -59.58188,-14.7275c-7.44437,-3.78937 -13.33,-6.7725 -19.80687,-6.7725c-5.29437,0 -8.86875,2.39187 -11.0725,4.97187c-3.03687,-7.55187 -4.56875,-15.53375 -4.56875,-23.78437c0,-4.21937 0.40312,-8.41187 1.20937,-12.49688c0.3225,-1.6125 0.69875,-3.225 1.15563,-4.8375v-0.02688c3.655,-3.84313 10.72313,-9.51375 20.72063,-9.51375c13.46438,0 25.50437,9.64812 39.4525,20.80125c16.77,13.41062 35.60938,28.51437 61.8125,30.1z" fill="url(#color-4)" stroke="none" stroke-width="1"></path></g></g></svg>