<svg version="1.1" xmlns="http://www.w3.org/2000/svg" xmlns:xlink="http://www.w3.org/1999/xlink" viewBox="0 0 172 172"><g fill="none" fill-rule="nonzero" stroke="none" stroke-width="1" stroke-linecap="butt" stroke-linejoin="miter" stroke-miterlimit="10" stroke-dasharray="" stroke-dashoffset="0" font-family="none" font-weight="none" font-size="none" text-anchor="none" style="mix-blend-mode: normal"><path d="M0,172v-172h172v172z" fill="none"></path><g fill="#ffffff"><path d="M130.69169,17.12081c-6.45,0.07679 -13.05118,2.53633 -18.2726,7.45061l-59.59291,59.58092c-0.61429,1.22857 -1.83566,2.46674 -1.83566,3.69531l-4.3072,29.47851c0,1.84286 0.61908,3.69052 1.84766,4.91909c1.22857,1.22857 2.45234,1.83566 4.2952,1.83566h0.61189l31.33817,-2.44755c1.22857,0 3.06903,-0.61908 3.68332,-1.84765l59.58091,-59.58092c9.82857,-9.82857 9.82857,-26.41669 0,-36.24526c-4.60714,-4.60714 -10.89877,-6.91551 -17.34877,-6.83873zM52.21429,35.00949c-20.27143,0 -36.85714,16.58571 -36.85714,36.85714v46.69531h0.61189c0,20.27143 16.58571,36.85714 36.85714,36.85714h50.99052c20.27143,0 36.85714,-16.58571 36.85714,-36.85714v-19.05245c0,-3.68571 -2.45714,-6.14286 -6.14286,-6.14286c-3.68571,0 -6.14286,2.45714 -6.14286,6.14286v19.05245c0,13.51429 -11.05714,24.57143 -24.57143,24.57143h-51.6024c-13.51429,0 -24.57143,-11.05714 -24.57143,-24.57143v-46.69531c0,-13.51429 11.05714,-24.57143 24.57143,-24.57143h21.5c3.68571,0 6.14286,-2.45714 6.14286,-6.14286c0,-3.68571 -2.45714,-6.14286 -6.14286,-6.14286z"></path></g></g></svg>