<svg version="1.1" xmlns="http://www.w3.org/2000/svg" xmlns:xlink="http://www.w3.org/1999/xlink" viewBox="0 0 172 172"><g fill="none" fill-rule="nonzero" stroke="none" stroke-width="1" stroke-linecap="butt" stroke-linejoin="miter" stroke-miterlimit="10" stroke-dasharray="" stroke-dashoffset="0" font-family="none" font-weight="none" font-size="none" text-anchor="none" style="mix-blend-mode: normal"><path d="M0,172v-172h172v172z" fill="none"></path><g fill="#ffffff"><path d="M86,5.73333c-35.90213,0 -57.33333,23.57547 -57.33333,63.06667c0,43.08027 51.14581,93.69897 53.32448,95.83177c2.22827,2.17937 5.78944,2.17937 8.01771,0c2.17867,-2.1328 53.32448,-52.75151 53.32448,-95.83177c0,-39.4912 -21.4312,-63.06667 -57.33333,-63.06667zM86,17.2c29.57827,0 45.86667,18.34667 45.86667,51.6c0,31.7512 -34.01587,70.827 -45.86667,83.48047c-11.85653,-12.64773 -45.86667,-51.6834 -45.86667,-83.48047c0,-33.25333 16.2884,-51.6 45.86667,-51.6zM86,28.66667c-15.83216,0 -28.66667,12.8345 -28.66667,28.66667c0,15.83216 12.8345,28.66667 28.66667,28.66667c15.83216,0 28.66667,-12.8345 28.66667,-28.66667c-0.01896,-15.8243 -12.84236,-28.64771 -28.66667,-28.66667zM85.28333,40.14453c4.68264,-0.19528 9.24219,1.52873 12.62418,4.77333c3.38199,3.2446 5.29351,7.72877 5.29249,12.41548c0,9.4993 -7.7007,17.2 -17.2,17.2c-9.40034,0.05743 -17.10548,-7.44283 -17.30134,-16.84131c-0.19587,-9.39848 7.1901,-17.21324 16.58467,-17.5475z"></path></g></g></svg>