<svg version="1.1" xmlns="http://www.w3.org/2000/svg" xmlns:xlink="http://www.w3.org/1999/xlink" viewBox="0 0 172 172"><defs><linearGradient x1="86.90569" y1="44.34375" x2="85.03788" y2="124.69194" gradientUnits="userSpaceOnUse" id="color-1"><stop offset="0" stop-color="#eaee83"></stop><stop offset="1" stop-color="#fdc599"></stop></linearGradient><linearGradient x1="86" y1="10.07813" x2="86" y2="159.90625" gradientUnits="userSpaceOnUse" id="color-2"><stop offset="0" stop-color="#d9e021"></stop><stop offset="1" stop-color="#fb872b"></stop></linearGradient><linearGradient x1="86" y1="37.40194" x2="86" y2="129.69338" gradientUnits="userSpaceOnUse" id="color-3"><stop offset="0" stop-color="#eaee83"></stop><stop offset="1" stop-color="#fdc599"></stop></linearGradient><linearGradient x1="86" y1="51.51131" x2="86" y2="117.22875" gradientUnits="userSpaceOnUse" id="color-4"><stop offset="0" stop-color="#d9e021"></stop><stop offset="1" stop-color="#fb872b"></stop></linearGradient></defs><g fill="none" fill-rule="none" stroke="none" stroke-width="1" stroke-linecap="butt" stroke-linejoin="miter" stroke-miterlimit="10" stroke-dasharray="" stroke-dashoffset="0" font-family="none" font-weight="none" font-size="none" text-anchor="none" style="mix-blend-mode: normal"><path d="M0,172v-172h172v172z" fill="none" fill-rule="nonzero"></path><g><path d="M86,69.875c-7.42133,0 -13.4375,6.01617 -13.4375,13.4375c0,7.42133 6.01617,13.4375 13.4375,13.4375c7.42133,0 13.4375,-6.01617 13.4375,-13.4375c0,-7.42133 -6.01617,-13.4375 -13.4375,-13.4375z" fill="url(#color-1)" fill-rule="evenodd"></path><path d="M85.84681,155.87769c-1.34106,0 -2.69019,-0.03494 -4.04738,-0.10481c-4.44512,-0.28487 -8.01412,-3.52869 -8.72094,-7.8905c-0.42731,-2.6445 -0.94331,-5.83456 -1.37063,-8.33394c-0.24725,-1.53188 -1.30344,-2.752 -2.76006,-3.20888c-2.92938,-0.94331 -5.74319,-2.11775 -8.37962,-3.49375c-1.36256,-0.71219 -2.98044,-0.59663 -4.22475,0.30369c-2.06669,1.49156 -4.70312,3.39163 -6.89612,4.95306c-3.55825,2.56656 -8.36619,2.33544 -11.67719,-0.57244c-2.05325,-1.8275 -4.0635,-3.82431 -5.98237,-5.95012c-2.94013,-3.34325 -3.17125,-8.16194 -0.58588,-11.74438c1.56681,-2.1715 3.4615,-4.79181 4.9235,-6.86119c0.90837,-1.25775 1.02394,-2.86756 0.31712,-4.22206c-1.40556,-2.74394 -2.56656,-5.56313 -3.45344,-8.39844c-0.45956,-1.46469 -1.68775,-2.52625 -3.2035,-2.77081l-0.56706,-0.09137c-2.41875,-0.39238 -5.35081,-0.86806 -7.80988,-1.28463c-4.33225,-0.69875 -7.568,-4.26237 -7.85019,-8.65913c-0.16125,-2.74662 -0.16662,-5.57925 -0.0215,-8.43875c0.28487,-4.44513 3.52869,-8.01412 7.8905,-8.72094c2.6445,-0.42731 5.83456,-0.94331 8.33394,-1.37063c1.53188,-0.24725 2.752,-1.30344 3.20888,-2.76006c0.94331,-2.92937 2.11775,-5.74319 3.49375,-8.37962c0.71219,-1.35988 0.59662,-2.98044 -0.30369,-4.22475c-1.49156,-2.06669 -3.39163,-4.70312 -4.95306,-6.89612c-2.56925,-3.55825 -2.33812,-8.36619 0.57244,-11.67719c1.8275,-2.05325 3.82431,-4.0635 5.95013,-5.98237c3.34325,-2.94012 8.15925,-3.17394 11.74437,-0.58588c2.1715,1.56681 4.79181,3.4615 6.86119,4.9235c1.26044,0.90837 2.86756,1.02931 4.22206,0.31712c2.74394,-1.40556 5.56313,-2.56656 8.39844,-3.45344c1.46469,-0.45956 2.52625,-1.68775 2.77081,-3.2035l0.09137,-0.56706c0.39238,-2.41875 0.86806,-5.35081 1.28463,-7.80988c0.69875,-4.33225 4.26238,-7.568 8.65913,-7.85019c2.74662,-0.15856 5.58194,-0.16662 8.43875,-0.0215c4.44513,0.28487 8.01412,3.52869 8.72094,7.8905v0c0.42731,2.64181 0.94331,5.83188 1.37062,8.33125c0.24725,1.53188 1.30344,2.752 2.76006,3.20887c2.92938,0.94331 5.74319,2.11775 8.37963,3.49375c1.35988,0.71219 2.98313,0.59662 4.22475,-0.30369c2.06669,-1.49156 4.70313,-3.39162 6.89612,-4.95306c3.55556,-2.57194 8.3635,-2.34081 11.67719,0.57244c2.05325,1.8275 4.0635,3.82431 5.98238,5.95013c2.94012,3.34325 3.17125,8.16194 0.58587,11.74437c-1.56681,2.1715 -3.4615,4.79181 -4.9235,6.86119c-0.90838,1.25775 -1.02394,2.86756 -0.31713,4.22206c1.40556,2.74394 2.56656,5.56313 3.45344,8.39844c0.45956,1.46469 1.68775,2.52625 3.2035,2.77081l0.56706,0.09137c2.41875,0.39238 5.35081,0.86806 7.80988,1.28463c4.33225,0.69875 7.568,4.26238 7.85019,8.65913c0.16125,2.74662 0.16663,5.57925 0.0215,8.43875c-0.28488,4.44513 -3.52869,8.01413 -7.8905,8.72094c-2.6445,0.42731 -5.83456,0.94331 -8.33394,1.37062c-1.53187,0.24725 -2.752,1.30344 -3.20888,2.76006c-0.94331,2.92938 -2.11775,5.74319 -3.49375,8.37963c-0.71219,1.35988 -0.59663,2.98044 0.30369,4.22475c1.49156,2.06669 3.39163,4.70313 4.95306,6.89612c2.56925,3.55825 2.33812,8.36619 -0.57244,11.67719c-1.8275,2.05325 -3.82431,4.0635 -5.95012,5.98238c-3.34594,2.93744 -8.15925,3.17125 -11.74437,0.58587c-2.1715,-1.56681 -4.79181,-3.4615 -6.86119,-4.9235c-1.25775,-0.90569 -2.86488,-1.02662 -4.22206,-0.31713c-2.74394,1.40556 -5.56312,2.56656 -8.39844,3.45344c-1.46469,0.45956 -2.52625,1.68775 -2.77081,3.2035l-0.09137,0.56706c-0.39238,2.41875 -0.86806,5.35081 -1.28463,7.80988c-0.69875,4.33225 -4.26238,7.568 -8.65913,7.85019c-1.44319,0.086 -2.90788,0.129 -4.39138,0.129zM58.695,127.00588c1.48887,0 2.98313,0.35744 4.36719,1.07769c2.365,1.23625 4.89394,2.29244 7.51694,3.13631c3.39163,1.06425 5.86412,3.91837 6.43656,7.44706c0.42731,2.48863 0.946,5.70019 1.37331,8.35813c0.301,1.86781 1.83288,3.25994 3.7195,3.38088c2.63106,0.13438 5.26481,0.12631 7.80181,-0.0215c1.86244,-0.11825 3.38625,-1.50231 3.68725,-3.36206c0.41656,-2.46444 0.88956,-5.38575 1.27925,-7.79106l0.09137,-0.56706c0.57244,-3.53406 3.05031,-6.39894 6.4715,-7.47125c2.54506,-0.7955 5.07937,-1.83825 7.53306,-3.096c3.14975,-1.64475 6.92031,-1.37331 9.82013,0.71756c2.06131,1.45663 4.69775,3.35938 6.88269,4.93694c1.53725,1.10456 3.60125,1.00781 5.02025,-0.24188c1.95381,-1.76569 3.81356,-3.6335 5.50131,-5.53087c1.23356,-1.40287 1.333,-3.45881 0.22844,-4.98262c-1.56412,-2.19837 -3.45612,-4.82406 -4.94231,-6.88c-2.09625,-2.90519 -2.36769,-6.68381 -0.70681,-9.86044c1.23625,-2.365 2.29244,-4.89394 3.13631,-7.51694c1.06425,-3.39162 3.91837,-5.86413 7.44706,-6.43656c2.48863,-0.42731 5.70019,-0.946 8.35813,-1.37331c1.86781,-0.301 3.25994,-1.83288 3.38088,-3.7195c0.13169,-2.62838 0.12631,-5.26481 -0.0215,-7.80181c-0.11825,-1.86244 -1.50231,-3.38625 -3.36206,-3.68725c-2.46444,-0.41656 -5.38575,-0.88956 -7.79106,-1.27925l-0.56706,-0.09137c-3.53406,-0.57244 -6.39894,-3.05031 -7.47125,-6.4715c-0.7955,-2.54506 -1.83825,-5.07938 -3.096,-7.53306c-1.64744,-3.14975 -1.376,-6.92031 0.71756,-9.82012c1.45663,-2.06131 3.35938,-4.69775 4.93694,-6.88269c1.10725,-1.53456 1.00781,-3.60125 -0.24188,-5.02025c-1.76569,-1.95381 -3.6335,-3.81356 -5.53088,-5.50131c-1.40019,-1.23088 -3.45612,-1.333 -4.98262,-0.22844c-2.19837,1.56413 -4.82406,3.45613 -6.88,4.94231c-2.90788,2.09356 -6.6865,2.365 -9.86044,0.70681c-2.365,-1.23625 -4.89394,-2.29244 -7.51694,-3.13631c-3.39162,-1.06425 -5.86413,-3.91838 -6.43656,-7.44706c-0.42731,-2.48862 -0.946,-5.70019 -1.37331,-8.35812c-0.301,-1.86781 -1.83288,-3.25994 -3.7195,-3.38087c-2.63106,-0.13169 -5.2675,-0.12631 -7.80181,0.0215c-1.86244,0.11825 -3.38625,1.50231 -3.68725,3.36206c-0.41656,2.46444 -0.88956,5.38575 -1.27925,7.79106l-0.09137,0.56706c-0.57244,3.53406 -3.05031,6.39894 -6.4715,7.47125c-2.54506,0.7955 -5.07938,1.83825 -7.53306,3.096c-3.14975,1.64744 -6.923,1.376 -9.82012,-0.71756c-2.06131,-1.45662 -4.69775,-3.35937 -6.88269,-4.93694c-1.53725,-1.10725 -3.59856,-1.00781 -5.02025,0.24188c-1.95381,1.76569 -3.81356,3.6335 -5.50131,5.53088c-1.23356,1.40288 -1.333,3.45881 -0.22844,4.98262c1.56413,2.19838 3.45613,4.82406 4.94231,6.88c2.09625,2.90519 2.36769,6.68381 0.70681,9.86044c-1.23625,2.365 -2.29244,4.89394 -3.13631,7.51694c-1.06425,3.39163 -3.91837,5.86413 -7.44706,6.43656c-2.48862,0.42731 -5.70019,0.946 -8.35812,1.37331c-1.86781,0.301 -3.25994,1.83287 -3.38087,3.7195c-0.13169,2.62838 -0.12631,5.26481 0.0215,7.80181c0.11825,1.86244 1.50231,3.38625 3.36206,3.68725c2.46444,0.41656 5.38575,0.88956 7.79106,1.27925l0.56706,0.09137c3.53406,0.57244 6.39894,3.05031 7.47125,6.4715c0.7955,2.54506 1.83825,5.07938 3.096,7.53306c1.64744,3.14975 1.376,6.92031 -0.71756,9.82012c-1.45662,2.06131 -3.35937,4.69775 -4.93694,6.88269c-1.10725,1.53456 -1.00781,3.60125 0.24188,5.02025c1.76569,1.95381 3.6335,3.81356 5.53088,5.50131c1.40288,1.23087 3.45881,1.33569 4.98262,0.22844c2.19838,-1.56412 4.82406,-3.45612 6.88,-4.94231c1.63937,-1.18519 3.56094,-1.7845 5.49325,-1.7845z" fill="url(#color-2)" fill-rule="nonzero"></path><path d="M86,129c-25.19263,0 -45.6875,-20.49487 -45.6875,-45.6875c0,-25.19263 20.49488,-45.6875 45.6875,-45.6875c25.19262,0 45.6875,20.49488 45.6875,45.6875c0,25.19262 -20.49487,45.6875 -45.6875,45.6875zM86,43c-22.22831,0 -40.3125,18.08419 -40.3125,40.3125c0,22.22831 18.08419,40.3125 40.3125,40.3125c22.22831,0 40.3125,-18.08419 40.3125,-40.3125c0,-22.22831 -18.08419,-40.3125 -40.3125,-40.3125z" fill="url(#color-3)" fill-rule="nonzero"></path><g fill="url(#color-4)" fill-rule="nonzero"><path d="M86,115.5625c-17.78319,0 -32.25,-14.46681 -32.25,-32.25c0,-17.78319 14.46681,-32.25 32.25,-32.25c17.78319,0 32.25,14.46681 32.25,32.25c0,17.78319 -14.46681,32.25 -32.25,32.25zM86,56.4375c-14.81887,0 -26.875,12.05613 -26.875,26.875c0,14.81887 12.05613,26.875 26.875,26.875c14.81887,0 26.875,-12.05612 26.875,-26.875c0,-14.81888 -12.05612,-26.875 -26.875,-26.875z"></path></g></g></g></svg>