<?xml version="1.0" standalone="no"?>
<!DOCTYPE svg PUBLIC "-//W3C//DTD SVG 20010904//EN"
 "http://www.w3.org/TR/2001/REC-SVG-20010904/DTD/svg10.dtd">
<svg version="1.0" xmlns="http://www.w3.org/2000/svg"
 width="344.000000pt" height="344.000000pt" viewBox="0 0 344.000000 344.000000"
 preserveAspectRatio="xMidYMid meet">

<g transform="translate(0.000000,344.000000) scale(0.100000,-0.100000)"
fill="#000000" stroke="none">
<path d="M2326 3051 c-661 -100 -710 -109 -727 -130 -18 -22 -19 -52 -19 -551
0 -518 0 -528 21 -554 l20 -26 748 0 c659 0 749 2 769 16 l22 15 0 653 c0 740
6 687 -81 685 -24 0 -363 -49 -753 -108z"/>
<path d="M840 2828 c-374 -57 -530 -84 -542 -95 -17 -15 -18 -50 -18 -464 l0
-448 22 -15 c20 -14 89 -16 558 -16 469 0 538 2 558 16 l22 15 0 522 c0 287
-4 527 -8 533 -8 13 -47 34 -59 33 -4 -1 -244 -37 -533 -81z"/>
<path d="M302 1634 l-22 -15 0 -448 c0 -414 1 -449 18 -464 12 -11 170 -38
551 -95 544 -82 560 -83 583 -48 4 6 8 246 8 533 l0 522 -22 15 c-20 14 -89
16 -558 16 -469 0 -538 -2 -558 -16z"/>
<path d="M1601 1624 c-21 -26 -21 -36 -21 -554 0 -499 1 -529 19 -551 17 -21
67 -30 737 -131 395 -59 735 -108 755 -108 73 0 69 -40 69 688 l0 651 -22 15
c-20 14 -110 16 -769 16 l-748 0 -20 -26z"/>
</g>
</svg>
