<svg version="1.1" xmlns="http://www.w3.org/2000/svg" xmlns:xlink="http://www.w3.org/1999/xlink" viewBox="0 0 172 172"><defs><linearGradient x1="115.5625" y1="150.72306" x2="115.5625" y2="162.03206" gradientUnits="userSpaceOnUse" id="color-1"><stop offset="0" stop-color="#eaee83"></stop><stop offset="1" stop-color="#fdc599"></stop></linearGradient><linearGradient x1="115.5625" y1="93.60831" x2="115.5625" y2="139.76881" gradientUnits="userSpaceOnUse" id="color-2"><stop offset="0" stop-color="#eaee83"></stop><stop offset="1" stop-color="#fdc599"></stop></linearGradient><linearGradient x1="115.5625" y1="27.04431" x2="115.5625" y2="145.29431" gradientUnits="userSpaceOnUse" id="color-3"><stop offset="0" stop-color="#d9e021"></stop><stop offset="1" stop-color="#fb872b"></stop></linearGradient><linearGradient x1="126.3125" y1="27.04431" x2="126.3125" y2="145.29431" gradientUnits="userSpaceOnUse" id="color-4"><stop offset="0" stop-color="#d9e021"></stop><stop offset="1" stop-color="#fb872b"></stop></linearGradient><linearGradient x1="99.4375" y1="27.04431" x2="99.4375" y2="145.29431" gradientUnits="userSpaceOnUse" id="color-5"><stop offset="0" stop-color="#d9e021"></stop><stop offset="1" stop-color="#fb872b"></stop></linearGradient><linearGradient x1="72.5625" y1="27.04431" x2="72.5625" y2="145.29431" gradientUnits="userSpaceOnUse" id="color-6"><stop offset="0" stop-color="#d9e021"></stop><stop offset="1" stop-color="#fb872b"></stop></linearGradient><linearGradient x1="45.6875" y1="27.04431" x2="45.6875" y2="145.29431" gradientUnits="userSpaceOnUse" id="color-7"><stop offset="0" stop-color="#d9e021"></stop><stop offset="1" stop-color="#fb872b"></stop></linearGradient><linearGradient x1="45.6875" y1="27.04431" x2="45.6875" y2="145.29431" gradientUnits="userSpaceOnUse" id="color-8"><stop offset="0" stop-color="#d9e021"></stop><stop offset="1" stop-color="#fb872b"></stop></linearGradient><linearGradient x1="72.5625" y1="27.04431" x2="72.5625" y2="145.29431" gradientUnits="userSpaceOnUse" id="color-9"><stop offset="0" stop-color="#d9e021"></stop><stop offset="1" stop-color="#fb872b"></stop></linearGradient><linearGradient x1="86" y1="27.04431" x2="86" y2="145.29431" gradientUnits="userSpaceOnUse" id="color-10"><stop offset="0" stop-color="#d9e021"></stop><stop offset="1" stop-color="#fb872b"></stop></linearGradient></defs><g fill="none" fill-rule="nonzero" stroke="none" stroke-width="1" stroke-linecap="butt" stroke-linejoin="miter" stroke-miterlimit="10" stroke-dasharray="" stroke-dashoffset="0" font-family="none" font-weight="none" font-size="none" text-anchor="none" style="mix-blend-mode: normal"><path d="M0,172v-172h172v172z" fill="none"></path><g><path d="M102.125,150.5h26.875v10.75h-26.875z" fill="url(#color-1)"></path><path d="M123.625,103.58431c3.19006,-0.9675 6.38012,-2.48862 9.55406,-4.60369l-2.98044,-4.472c-9.847,6.56556 -19.42256,6.56556 -29.26956,0l-2.98044,4.472c3.17394,2.11775 6.36131,3.63887 9.55406,4.60369v30.79069h-8.0625v5.375h32.25v-5.375h-8.0625v-30.79069zM112.875,134.375v-29.70225c0.89494,0.09137 1.79256,0.1505 2.6875,0.1505c0.89494,0 1.79256,-0.05912 2.6875,-0.1505v29.70225z" fill="url(#color-2)"></path><path d="M134.375,150.49462v-2.6875v-14.00187v-6.47688v-28.79387c0,-1.73075 -0.57244,-3.44269 -1.6125,-4.83213l-10.75806,-14.34319c-1.53456,-2.05056 -3.88344,-4.10919 -6.44194,-4.10919c-2.5585,0 -4.90738,2.05862 -6.44194,4.10919l-10.76075,14.34319c-1.03737,1.38675 -1.60981,3.10138 -1.60981,4.83213v30.49237v7.09231v11.68794v2.6875v2.6875c0,7.40675 6.02806,13.44287 13.4375,13.44287h10.75c7.40944,0 13.4375,-6.03612 13.4375,-13.44556zM129,153.18212c0,4.44513 -3.61737,8.06788 -8.0625,8.06788h-10.75c-4.44512,0 -8.0625,-3.62275 -8.0625,-8.07056v-2.67944h26.875zM129,145.125h-26.875v-46.5905c0,-0.58319 0.18544,-1.1395 0.53481,-1.60981l7.06812,-9.42506c1.93769,0.77669 3.88344,1.18519 5.83188,1.18519c1.94844,0 3.89419,-0.4085 5.83188,-1.18519l7.06544,9.42238c0.35206,0.47031 0.5375,1.02662 0.5375,1.60981v46.59319z" fill="url(#color-3)"></path><path d="M123.625,29.5625h5.375v21.5h-5.375z" fill="url(#color-4)"></path><path d="M96.75,43h5.375v26.875h-5.375z" fill="url(#color-5)"></path><path d="M69.875,29.5625h5.375v24.1875h-5.375z" fill="url(#color-6)"></path><path d="M43,43h5.375v67.1875h-5.375z" fill="url(#color-7)"></path><path d="M43,120.9375h5.375v21.83594h-5.375z" fill="url(#color-8)"></path><path d="M69.875,91.375h5.375v37.625h-5.375z" fill="url(#color-9)"></path><path d="M45.6875,145.125c-2.70094,0 -5.38037,-0.79819 -7.69969,-2.41338l-18.21319,-10.99187c-2.30319,-1.59906 -3.64963,-4.13069 -3.64963,-6.70262v-92.76712c0,-2.021 1.032,-3.8485 2.7735,-4.75956c1.79525,-0.93794 3.95331,-0.7955 5.62494,0.37088l19.47094,11.79544c1.07231,0.73906 2.31662,0.73906 3.24112,0.09406l17.81812,-10.56187c4.43975,-3.10406 10.62906,-3.10138 15.23544,0.10481l17.4365,10.35225c1.09113,0.74981 2.33544,0.74713 3.25725,0.10481l17.81813,-10.56187c4.43975,-3.10406 10.62906,-3.10138 15.23544,0.10481l18.21588,10.68013c2.33544,1.61519 3.62275,4.07694 3.62275,6.69725v93.07888c0,1.97531 -1.08575,3.76788 -2.83263,4.67894c-1.79525,0.93525 -3.94794,0.79281 -5.61956,-0.37087l-6.05225,-3.73562l-11.12356,-6.665l2.76275,-4.61175l17.49025,10.70431v-93.07888c0,-0.86269 -0.42731,-1.677 -1.1395,-2.17419l-18.24275,-10.6855c-2.9455,-2.0425 -6.665,-2.03981 -9.43581,-0.11287l-17.79125,10.56725c-2.59881,1.81406 -6.31025,1.81406 -9.07031,-0.10481l-17.46606,-10.35762c-2.93475,-2.03444 -6.65425,-2.03175 -9.42238,-0.10481l-17.79125,10.56725c-2.59881,1.81406 -6.31025,1.81406 -9.07031,-0.10481l-19.57037,-11.911v92.71875c0,0.86538 0.48644,1.74419 1.20131,2.24406l18.2105,10.99188c2.91325,2.021 6.63275,2.021 9.40625,0.09406l17.65688,-10.664c2.61763,-1.8275 6.32637,-1.82481 9.08913,0.09406l17.58431,10.46781c1.52381,1.05081 3.12287,1.55338 4.78912,1.55338v5.375c-2.76812,0 -5.43144,-0.83581 -7.69969,-2.41338l-17.58431,-10.46781c-1.08575,-0.74713 -2.33006,-0.74713 -3.25456,-0.10213l-17.65419,10.664c-2.21719,1.54262 -4.89663,2.31931 -7.55725,2.31931z" fill="url(#color-10)"></path></g></g></svg>